<svg width="158" height="48" viewBox="0 0 158 48" fill="none" xmlns="http://www.w3.org/2000/svg">
<rect width="158" height="48" fill="#FF6B00"/>
<path d="M20.1848 21.1921C20.1366 20.7051 19.9293 20.3268 19.563 20.0572C19.1968 19.7875 18.6998 19.6527 18.0719 19.6527C17.6453 19.6527 17.2851 19.7131 16.9913 19.8338C16.6975 19.9505 16.4721 20.1135 16.3152 20.3228C16.1622 20.5321 16.0858 20.7695 16.0858 21.0352C16.0777 21.2565 16.124 21.4497 16.2246 21.6147C16.3293 21.7797 16.4721 21.9226 16.6532 22.0433C16.8344 22.16 17.0436 22.2627 17.2811 22.3512C17.5185 22.4357 17.7721 22.5082 18.0417 22.5685L19.1525 22.8342C19.6918 22.9549 20.1869 23.1159 20.6376 23.3171C21.0884 23.5183 21.4788 23.7659 21.8088 24.0597C22.1388 24.3535 22.3944 24.6996 22.5755 25.098C22.7606 25.4964 22.8552 25.9532 22.8592 26.4684C22.8552 27.225 22.662 27.881 22.2797 28.4364C21.9014 28.9878 21.354 29.4164 20.6376 29.7223C19.9253 30.0241 19.066 30.1751 18.0598 30.1751C17.0617 30.1751 16.1924 30.0221 15.4519 29.7163C14.7154 29.4104 14.1399 28.9576 13.7253 28.358C13.3148 27.7543 13.0995 27.0077 13.0794 26.1183H15.6089C15.637 26.5328 15.7558 26.8789 15.965 27.1566C16.1783 27.4303 16.4621 27.6375 16.8162 27.7784C17.1744 27.9152 17.5789 27.9837 18.0297 27.9837C18.4724 27.9837 18.8567 27.9193 19.1827 27.7905C19.5127 27.6617 19.7683 27.4826 19.9494 27.2532C20.1305 27.0238 20.2211 26.7602 20.2211 26.4624C20.2211 26.1847 20.1386 25.9512 19.9736 25.7621C19.8126 25.5729 19.5751 25.4119 19.2612 25.2791C18.9513 25.1463 18.571 25.0256 18.1202 24.9169L16.774 24.5788C15.7316 24.3253 14.9086 23.9289 14.3049 23.3896C13.7012 22.8503 13.4014 22.1238 13.4054 21.2102C13.4014 20.4616 13.6006 19.8076 14.003 19.2482C14.4095 18.6888 14.9669 18.2521 15.6753 17.9382C16.3836 17.6243 17.1885 17.4673 18.09 17.4673C19.0076 17.4673 19.8085 17.6243 20.4927 17.9382C21.1809 18.2521 21.7162 18.6888 22.0986 19.2482C22.4809 19.8076 22.6781 20.4556 22.6902 21.1921H20.1848ZM29.305 30.1811C28.3512 30.1811 27.5302 29.9879 26.842 29.6016C26.1578 29.2112 25.6305 28.6598 25.2603 27.9474C24.89 27.2311 24.7049 26.3839 24.7049 25.4059C24.7049 24.4521 24.89 23.6149 25.2603 22.8945C25.6305 22.1741 26.1517 21.6127 26.8238 21.2102C27.5 20.8078 28.2928 20.6065 29.2024 20.6065C29.8141 20.6065 30.3836 20.7051 30.9108 20.9023C31.4421 21.0955 31.9049 21.3873 32.2993 21.7777C32.6978 22.1681 33.0077 22.6591 33.229 23.2507C33.4504 23.8383 33.5611 24.5265 33.5611 25.3153V26.0217H25.7312V24.4279H31.1403C31.1403 24.0576 31.0598 23.7296 30.8988 23.4439C30.7378 23.1581 30.5144 22.9348 30.2287 22.7738C29.947 22.6088 29.6189 22.5263 29.2447 22.5263C28.8543 22.5263 28.5081 22.6168 28.2063 22.7979C27.9085 22.975 27.6751 23.2145 27.506 23.5163C27.337 23.8142 27.2505 24.1462 27.2464 24.5124V26.0277C27.2464 26.4865 27.3309 26.8829 27.5 27.217C27.673 27.551 27.9165 27.8086 28.2304 27.9897C28.5444 28.1708 28.9166 28.2614 29.3473 28.2614C29.633 28.2614 29.8946 28.2211 30.1321 28.1406C30.3695 28.0601 30.5728 27.9394 30.7418 27.7784C30.9108 27.6174 31.0396 27.4202 31.1282 27.1868L33.5067 27.3438C33.386 27.9152 33.1385 28.4143 32.7642 28.8409C32.3939 29.2635 31.915 29.5935 31.3274 29.831C30.7438 30.0644 30.0697 30.1811 29.305 30.1811ZM39.9752 30.1811C39.0213 30.1811 38.2003 29.9879 37.5121 29.6016C36.8279 29.2112 36.3007 28.6598 35.9304 27.9474C35.5602 27.2311 35.375 26.3839 35.375 25.4059C35.375 24.4521 35.5602 23.6149 35.9304 22.8945C36.3007 22.1741 36.8219 21.6127 37.494 21.2102C38.1701 20.8078 38.963 20.6065 39.8726 20.6065C40.4843 20.6065 41.0538 20.7051 41.581 20.9023C42.1123 21.0955 42.5751 21.3873 42.9695 21.7777C43.3679 22.1681 43.6778 22.6591 43.8992 23.2507C44.1205 23.8383 44.2312 24.5265 44.2312 25.3153V26.0217H36.4013V24.4279H41.8104C41.8104 24.0576 41.7299 23.7296 41.5689 23.4439C41.4079 23.1581 41.1846 22.9348 40.8988 22.7738C40.6171 22.6088 40.2891 22.5263 39.9148 22.5263C39.5244 22.5263 39.1783 22.6168 38.8765 22.7979C38.5786 22.975 38.3452 23.2145 38.1762 23.5163C38.0071 23.8142 37.9206 24.1462 37.9166 24.5124V26.0277C37.9166 26.4865 38.0011 26.8829 38.1701 27.217C38.3432 27.551 38.5867 27.8086 38.9006 27.9897C39.2145 28.1708 39.5868 28.2614 40.0174 28.2614C40.3032 28.2614 40.5648 28.2211 40.8022 28.1406C41.0397 28.0601 41.2429 27.9394 41.412 27.7784C41.581 27.6174 41.7098 27.4202 41.7983 27.1868L44.1769 27.3438C44.0561 27.9152 43.8086 28.4143 43.4343 28.8409C43.0641 29.2635 42.5851 29.5935 41.9976 29.831C41.414 30.0644 40.7399 30.1811 39.9752 30.1811ZM58.5793 23.3714L56.2249 23.5163C56.1846 23.3151 56.0981 23.134 55.9653 22.973C55.8324 22.808 55.6574 22.6772 55.44 22.5806C55.2267 22.48 54.9712 22.4297 54.6734 22.4297C54.2749 22.4297 53.9389 22.5142 53.6652 22.6832C53.3915 22.8482 53.2547 23.0696 53.2547 23.3473C53.2547 23.5687 53.3432 23.7558 53.5203 23.9087C53.6974 24.0617 54.0012 24.1844 54.4319 24.277L56.1101 24.6151C57.0117 24.8002 57.6838 25.098 58.1265 25.5085C58.5692 25.919 58.7905 26.4583 58.7905 27.1264C58.7905 27.7341 58.6115 28.2674 58.2533 28.7262C57.8991 29.185 57.4121 29.5432 56.7923 29.8008C56.1766 30.0543 55.4662 30.1811 54.6613 30.1811C53.4338 30.1811 52.4558 29.9255 51.7273 29.4144C51.0029 28.8993 50.5783 28.199 50.4535 27.3136L52.983 27.1808C53.0595 27.555 53.2446 27.8408 53.5384 28.038C53.8322 28.2312 54.2085 28.3278 54.6673 28.3278C55.1181 28.3278 55.4803 28.2412 55.754 28.0682C56.0317 27.8911 56.1725 27.6637 56.1766 27.386C56.1725 27.1526 56.0739 26.9614 55.8807 26.8125C55.6876 26.6596 55.3897 26.5429 54.9873 26.4624L53.3815 26.1424C52.4759 25.9613 51.8018 25.6474 51.3591 25.2006C50.9204 24.7539 50.7011 24.1844 50.7011 23.4922C50.7011 22.8965 50.862 22.3834 51.184 21.9528C51.51 21.5221 51.9668 21.1901 52.5544 20.9567C53.146 20.7232 53.8382 20.6065 54.6311 20.6065C55.8023 20.6065 56.7239 20.854 57.396 21.3491C58.0722 21.8441 58.4666 22.5182 58.5793 23.3714ZM65.1096 30.1811C64.1718 30.1811 63.3609 29.9819 62.6767 29.5835C61.9965 29.181 61.4713 28.6216 61.1011 27.9052C60.7308 27.1848 60.5457 26.3497 60.5457 25.3999C60.5457 24.442 60.7308 23.6049 61.1011 22.8885C61.4713 22.1681 61.9965 21.6087 62.6767 21.2102C63.3609 20.8078 64.1718 20.6065 65.1096 20.6065C66.0473 20.6065 66.8563 20.8078 67.5364 21.2102C68.2206 21.6087 68.7478 22.1681 69.1181 22.8885C69.4884 23.6049 69.6735 24.442 69.6735 25.3999C69.6735 26.3497 69.4884 27.1848 69.1181 27.9052C68.7478 28.6216 68.2206 29.181 67.5364 29.5835C66.8563 29.9819 66.0473 30.1811 65.1096 30.1811ZM65.1217 28.1889C65.5483 28.1889 65.9044 28.0682 66.1902 27.8267C66.4759 27.5812 66.6913 27.2472 66.8361 26.8246C66.9851 26.402 67.0595 25.921 67.0595 25.3817C67.0595 24.8424 66.9851 24.3615 66.8361 23.9389C66.6913 23.5163 66.4759 23.1823 66.1902 22.9368C65.9044 22.6913 65.5483 22.5685 65.1217 22.5685C64.691 22.5685 64.3288 22.6913 64.035 22.9368C63.7452 23.1823 63.5259 23.5163 63.377 23.9389C63.2321 24.3615 63.1597 24.8424 63.1597 25.3817C63.1597 25.921 63.2321 26.402 63.377 26.8246C63.5259 27.2472 63.7452 27.5812 64.035 27.8267C64.3288 28.0682 64.691 28.1889 65.1217 28.1889ZM77.8021 26.0518V20.7273H80.3738V30H77.9047V28.3157H77.8081C77.5989 28.859 77.2507 29.2957 76.7638 29.6257C76.2808 29.9557 75.6912 30.1207 74.9949 30.1207C74.3751 30.1207 73.8298 29.9799 73.3589 29.6982C72.8881 29.4164 72.5198 29.016 72.2542 28.4968C71.9926 27.9776 71.8598 27.3558 71.8557 26.6314V20.7273H74.4275V26.1726C74.4315 26.7199 74.5784 27.1526 74.8682 27.4705C75.1579 27.7885 75.5463 27.9474 76.0333 27.9474C76.3432 27.9474 76.633 27.877 76.9026 27.7362C77.1723 27.5913 77.3896 27.378 77.5546 27.0962C77.7236 26.8145 77.8061 26.4664 77.8021 26.0518ZM82.9409 30V20.7273H85.4342V22.3452H85.5308C85.6998 21.7696 85.9835 21.335 86.382 21.0412C86.7804 20.7434 87.2392 20.5945 87.7584 20.5945C87.8872 20.5945 88.026 20.6025 88.1749 20.6186C88.3239 20.6347 88.4547 20.6568 88.5673 20.685V22.967C88.4466 22.9308 88.2796 22.8986 88.0663 22.8704C87.853 22.8422 87.6578 22.8281 87.4807 22.8281C87.1024 22.8281 86.7643 22.9106 86.4665 23.0756C86.1727 23.2366 85.9393 23.462 85.7662 23.7518C85.5972 24.0415 85.5127 24.3756 85.5127 24.7539V30H82.9409ZM94.165 30.1811C93.2152 30.1811 92.3982 29.9799 91.714 29.5774C91.0338 29.1709 90.5106 28.6075 90.1444 27.8871C89.7822 27.1667 89.6011 26.3376 89.6011 25.3999C89.6011 24.45 89.7842 23.617 90.1504 22.9006C90.5207 22.1802 91.0459 21.6187 91.7261 21.2163C92.4062 20.8098 93.2152 20.6065 94.1529 20.6065C94.9619 20.6065 95.6702 20.7534 96.2779 21.0472C96.8856 21.341 97.3666 21.7536 97.7207 22.2848C98.0749 22.8161 98.2701 23.4399 98.3063 24.1562H95.8795C95.811 23.6934 95.6299 23.3211 95.3361 23.0394C95.0464 22.7537 94.666 22.6108 94.1952 22.6108C93.7967 22.6108 93.4486 22.7195 93.1508 22.9368C92.857 23.1501 92.6276 23.462 92.4626 23.8725C92.2976 24.283 92.215 24.7801 92.215 25.3636C92.215 25.9553 92.2955 26.4583 92.4565 26.8729C92.6215 27.2874 92.8529 27.6033 93.1508 27.8207C93.4486 28.038 93.7967 28.1467 94.1952 28.1467C94.489 28.1467 94.7526 28.0863 94.986 27.9656C95.2235 27.8448 95.4186 27.6697 95.5716 27.4403C95.7285 27.2069 95.8312 26.9272 95.8795 26.6012H98.3063C98.2661 27.3095 98.0729 27.9334 97.7268 28.4727C97.3847 29.0079 96.9118 29.4265 96.3081 29.7283C95.7044 30.0302 94.99 30.1811 94.165 30.1811ZM104.689 30.1811C103.735 30.1811 102.914 29.9879 102.226 29.6016C101.541 29.2112 101.014 28.6598 100.644 27.9474C100.274 27.2311 100.089 26.3839 100.089 25.4059C100.089 24.4521 100.274 23.6149 100.644 22.8945C101.014 22.1741 101.535 21.6127 102.208 21.2102C102.884 20.8078 103.677 20.6065 104.586 20.6065C105.198 20.6065 105.767 20.7051 106.295 20.9023C106.826 21.0955 107.289 21.3873 107.683 21.7777C108.081 22.1681 108.391 22.6591 108.613 23.2507C108.834 23.8383 108.945 24.5265 108.945 25.3153V26.0217H101.115V24.4279H106.524C106.524 24.0576 106.443 23.7296 106.282 23.4439C106.121 23.1581 105.898 22.9348 105.612 22.7738C105.331 22.6088 105.003 22.5263 104.628 22.5263C104.238 22.5263 103.892 22.6168 103.59 22.7979C103.292 22.975 103.059 23.2145 102.89 23.5163C102.721 23.8142 102.634 24.1462 102.63 24.5124V26.0277C102.63 26.4865 102.715 26.8829 102.884 27.217C103.057 27.551 103.3 27.8086 103.614 27.9897C103.928 28.1708 104.3 28.2614 104.731 28.2614C105.017 28.2614 105.278 28.2211 105.516 28.1406C105.753 28.0601 105.956 27.9394 106.126 27.7784C106.295 27.6174 106.423 27.4202 106.512 27.1868L108.89 27.3438C108.77 27.9152 108.522 28.4143 108.148 28.8409C107.778 29.2635 107.299 29.5935 106.711 29.831C106.128 30.0644 105.453 30.1811 104.689 30.1811Z" fill="white"/>
<g clip-path="url(#clip0_48_831)">
<g clip-path="url(#clip1_48_831)">
<path d="M142.999 21.4611C142.999 20.3212 142.633 19.2504 141.934 18.3178C142.2 17.4197 142.267 16.2798 142.2 14.9672C142.167 14.4145 141.735 14 141.202 14C140.903 14 138.374 14.0345 136.91 15.3817C135.646 15.1399 134.315 15.1399 133.017 15.3817C131.587 14.0345 129.058 14 128.725 14C128.193 14 127.76 14.4145 127.727 14.9672C127.627 16.2798 127.727 17.4197 127.993 18.3178C127.295 19.285 126.929 20.3558 126.929 21.4611C126.929 23.8791 128.725 26.0553 131.454 27.0915C131.354 27.2988 131.287 27.5406 131.221 27.7824C128.326 27.4715 126.962 24.7427 126.895 24.639C126.662 24.1209 126.064 23.9136 125.564 24.19C125.065 24.4318 124.866 25.0535 125.132 25.5717C125.199 25.7444 127.028 29.4404 131.054 29.8549V32.9637C131.054 33.5509 131.487 34 132.052 34H137.875C138.441 34 138.873 33.5509 138.873 32.9637V28.8532C138.873 28.2314 138.74 27.6442 138.507 27.1261C141.202 26.0553 142.999 23.9136 142.999 21.4611Z" fill="white"/>
</g>
</g>
<defs>
<clipPath id="clip0_48_831">
<rect width="18" height="20" fill="white" transform="translate(125 14)"/>
</clipPath>
<clipPath id="clip1_48_831">
<rect width="18" height="20" fill="white" transform="translate(125 14)"/>
</clipPath>
</defs>
</svg>
