<svg width="339" height="270" viewBox="0 0 339 270" fill="none" xmlns="http://www.w3.org/2000/svg">
<path d="M206.707 79.0537L165.932 82.6327L158.789 124.686L116.526 129.159L123.669 86.5099L79.918 90.3872L87.061 46.2464L130.812 43.2639L173.372 40.2815L180.515 -2.36804L221.29 -4.45578L228.731 -46.807L268.017 -48L260.577 -6.5435L253.434 34.6147L214.147 37.299L206.707 79.0537Z" fill="#666666"/>
<path d="M199.564 120.212L192.719 161.37L151.944 166.44L158.79 124.686L199.564 120.212Z" fill="#262626"/>
<path d="M246.292 75.4748L239.149 116.037L199.564 120.212L206.707 79.0538L246.292 75.4748Z" fill="#262626"/>
<path d="M276.946 112.159L269.803 151.826L232.005 156.598L239.148 116.036L276.946 112.159Z" fill="#262626"/>
<path d="M284.09 72.194L246.291 75.4748L253.434 34.6148L291.53 31.9305L328.138 29.2463L320.995 68.9133L313.554 108.282L276.946 112.159L284.09 72.194Z" fill="#FF6B00"/>
<path d="M72.775 133.931L116.526 129.159L109.681 171.809L151.943 166.44L144.8 207.897L102.538 213.862L58.7866 220.125L65.9296 177.177L20.3928 182.844L-26.9297 188.809L-20.0843 143.774L27.2382 138.703L34.3813 94.2644L79.918 90.3872L72.775 133.931Z" fill="#FF6B00"/>
<path d="M-13.2393 98.4399L-6.09624 52.8079L41.2263 49.5272L34.3809 94.2644L-13.2393 98.4399Z" fill="#262626"/>
<path d="M6.70215 269.933L13.5475 226.687L58.7867 220.125L51.9413 262.775L6.70215 269.933Z" fill="#262626"/>
<path d="M192.718 161.37L232.005 156.598L224.862 196.564L217.719 236.231L178.432 242.494L137.955 249.055L144.8 207.897L185.575 202.23L192.718 161.37Z" fill="#262626"/>
<path d="M299.566 185.827L262.66 191.195L269.803 151.826L306.411 147.054L299.566 185.827Z" fill="#262626"/>
<path d="M349.269 104.405L342.126 142.879L306.411 147.054L313.554 108.282L349.269 104.405Z" fill="#262626"/>
<path d="M41.2266 49.5272L48.3696 4.49174L94.204 2.10574L87.0609 46.2465L41.2266 49.5272Z" fill="#262626"/>
</svg>
